PathFileType	4	(X/Y/Z)	C:\Users\Biomechanik\SynologyDrive\AlexP\Athlete_03\Athlete_3_25_03_31\Deadlift_35kg_02\marker_experimental.trc
DataRate	CameraRate	NumFrames	NumMarkers	Units	OrigDataRate	OrigDataStartFrame	OrigNumFrames
200.000000	200.000000	4	55	mm	200.000000	495	1983
Frame#	Time	BL			BR			GLAB			RFHD			LFHD			C7			T6			SPINMOL			SPINM2			SPINM3			T12			BELTOL			BELT2			BELT3			SACROL			SACR2			SACR3			LTHOL			LTH2			LTH3			LSHAOL			LSHA2			LSHA3			LHEE			LTOE			LM5			RTHOL			RTH2			RTH3			RSHAOL			RSHA2			RSHA3			RHEE			RTOE			RM5			STRN			XIPH			LACR			LUAOL			LUA2			LUA3			LLAOL			LLA2			LLA3			LWRR			LWRU			RACR			RUAOL			RUA2			RUA3			RLAOL			RLA2			RLA3			RWRR			RWRU			
		X1	Y1	Z1	X2	Y2	Z2	X3	Y3	Z3	X4	Y4	Z4	X5	Y5	Z5	X6	Y6	Z6	X7	Y7	Z7	X8	Y8	Z8	X9	Y9	Z9	X10	Y10	Z10	X11	Y11	Z11	X12	Y12	Z12	X13	Y13	Z13	X14	Y14	Z14	X15	Y15	Z15	X16	Y16	Z16	X17	Y17	Z17	X18	Y18	Z18	X19	Y19	Z19	X20	Y20	Z20	X21	Y21	Z21	X22	Y22	Z22	X23	Y23	Z23	X24	Y24	Z24	X25	Y25	Z25	X26	Y26	Z26	X27	Y27	Z27	X28	Y28	Z28	X29	Y29	Z29	X30	Y30	Z30	X31	Y31	Z31	X32	Y32	Z32	X33	Y33	Z33	X34	Y34	Z34	X35	Y35	Z35	X36	Y36	Z36	X37	Y37	Z37	X38	Y38	Z38	X39	Y39	Z39	X40	Y40	Z40	X41	Y41	Z41	X42	Y42	Z42	X43	Y43	Z43	X44	Y44	Z44	X45	Y45	Z45	X46	Y46	Z46	X47	Y47	Z47	X48	Y48	Z48	X49	Y49	Z49	X50	Y50	Z50	X51	Y51	Z51	X52	Y52	Z52	X53	Y53	Z53	X54	Y54	Z54	X55	Y55	Z55	

496	2.475	2232.87451171875	221.0372161865236	343.0814819335941	212.1366882324218	222.8064117431641	371.5541687011719	1210.123046875	929.0756835937501	718.8645019531252	1147.48681640625	981.3629760742189	698.2461547851565	1283.913452148437	971.9196166992189	698.7222290039065	1214.669799804688	993.1922607421876	453.0504150390627	1215.107177734375	967.1079711914064	280.5977172851565	1236.667724609375	956.1464843750001	242.342727661133	1187.377807617188	951.6954345703126	234.7971191406252	1222.724609375	924.9798583984376	185.8232269287112	1221.87890625	879.5670166015626	132.0418853759768	1235.485961914062	874.3419799804689	89.86800384521507	1185.212524414062	869.7254028320314	89.79686737060568	1214.670532226562	833.3872680664064	41.96479797363303	1241.875244140625	733.0859375000001	-50.37929534912087	1190.671020507812	730.5910034179689	-46.33150482177712	1216.406494140625	676.4312744140626	-74.46657562255837	1426.100463867188	481.3853454589845	184.7046356201174	1401.337280273438	409.9956054687501	205.5381469726565	1418.132934570312	447.8838500976564	234.937438964844	1426.628173828125	278.9417724609376	289.0195007324222	1413.501831054688	242.8189086914063	218.9102172851565	1414.349487304688	223.0374603271485	265.4288635253909	1306.622680664062	71.72216796875009	110.4766616821291	1307.998046875	45.28572463989266	324.8232421875002	1412.070922851562	29.98508644104012	279.2151184082034	1013.384643554688	479.3598937988282	175.9696960449221	994.9669189453125	499.6065979003907	251.4608154296877	1015.920593261719	457.2639160156251	234.2524108886721	1004.998779296875	302.9956054687501	287.5758666992189	1012.018371582031	224.8256835937501	288.9165344238283	1017.501281738281	254.6459503173829	249.9556579589846	1126.661376953125	64.89758300781257	115.1049270629885	1107.0546875	45.58351135253913	325.4572448730471	1007.532653808594	40.09154510498053	270.197235107422	1215.564819335938	794.5219726562501	473.9454040527346	1221.154663085938	707.4497070312501	350.0992431640627	1375.70166015625	868.7809448242189	500.7001647949221	1470.174926757812	724.0756835937501	473.0212097167972	1496.65625	667.7208862304689	450.451110839844	1451.612548828125	661.6418457031251	472.2357482910159	1512.23291015625	467.0881958007814	415.5038146972659	1540.012573242188	423.481414794922	355.5075988769534	1515.513549804688	408.3429565429689	396.7239685058597	1515.777221679688	305.8778686523439	381.0156555175784	1447.507568359375	305.5653076171876	340.7704772949222	1062.0546875	864.2192382812501	500.0199279785158	968.3547973632811	730.0117187500001	464.7669982910158	971.8963623046874	665.9879150390626	462.0670776367189	931.9487915039061	681.3089599609376	438.4494628906252	914.1201171874999	463.4123229980469	399.4939270019533	930.9238281249999	392.5070190429688	432.350311279297	911.7738647460936	401.7429809570313	387.3305053710939	921.6345825195311	312.1985473632813	398.2423706054689	986.7496948242186	297.7944335937501	347.5252685546877	
497	2.48	2232.87744140625	221.024856567383	343.0178222656254	212.1375885009765	222.7880706787109	371.5865783691407	1210.069458007812	930.7966918945314	718.8240966796877	1147.431396484375	982.9451293945314	697.875671386719	1283.824096679687	973.5039062500001	698.3663330078127	1214.575561523438	993.5413208007814	452.6454162597659	1214.998168945312	967.0101318359376	280.3723754882815	1236.60302734375	955.9796142578126	242.1817779541018	1187.35791015625	951.5040283203126	234.5962829589846	1222.651245117188	924.7163085937501	185.715026855469	1221.806518554688	879.3168334960939	132.0826568603518	1235.44189453125	874.1493530273439	89.99674224853538	1185.16455078125	869.5208740234376	89.92290496826193	1214.615234375	833.1787719726564	42.11819839477561	1241.860473632812	732.9127197265626	-50.22948455810524	1190.656616210938	730.4109497070314	-46.19211959838845	1216.406372070312	676.2650146484376	-74.3384094238279	1426.117431640625	481.2766418457032	184.8677368164065	1401.38134765625	409.8843688964845	205.7051086425784	1418.152221679688	447.7775878906251	235.1072540283206	1426.624755859375	278.893524169922	289.1224670410159	1413.493408203125	242.8088531494141	218.9989166259768	1414.3525390625	223.0054626464845	265.5039672851565	1306.609619140625	71.73468780517587	110.486999511719	1307.99951171875	45.28600311279305	324.8247680664065	1412.058959960938	29.95870399475106	279.2505187988284	1013.359741210938	479.1919250488282	176.0895233154299	994.9380493164062	499.4633789062501	251.5701904296877	1015.89404296875	457.1177062988282	234.3817291259768	1004.980529785156	302.9422302246094	287.6747131347658	1011.991943359375	224.773178100586	288.9773864746095	1017.487670898438	254.6117095947266	250.0327301025393	1126.676879882812	64.90928649902351	115.1168518066408	1107.029052734375	45.57386779785163	325.4807128906252	1007.532409667969	40.08649826049811	270.2012023925783	1215.496215820312	794.9802246093751	474.101501464844	1221.050537109375	707.5827636718751	350.4947204589846	1375.675659179688	869.2398681640626	500.4438171386721	1470.214477539062	724.4578247070314	472.6076965332034	1496.650268554688	668.1003417968751	449.9447326660159	1451.697998046875	662.0014038085939	471.9214477539065	1512.1806640625	467.4487609863282	415.2626647949222	1539.763305664062	423.7776489257814	355.2261657714847	1515.390991210938	408.6888427734376	396.5409240722659	1515.602783203125	306.2600402832032	380.9387207031253	1447.11572265625	305.789031982422	340.9987792968753	1061.925903320312	864.6809082031251	499.8071899414064	968.3419189453124	730.2601928710939	464.4930725097658	971.9296264648436	666.2462768554689	461.8586730957033	931.9346923828124	681.5603027343751	438.138641357422	914.3257446289061	463.6659851074219	399.2991943359377	931.0026855468749	392.7697753906251	432.2177124023439	911.9548339843749	401.9926147460938	387.1583862304689	921.7222900390624	312.4470520019532	398.1151428222658	986.9578247070311	297.9141845703126	347.5814208984377	
498	2.485	2232.87939453125	221.0118560791017	342.9548034667973	212.1386566162109	222.7702941894531	371.6194152832032	1210.014892578125	932.5338745117189	718.776062011719	1147.375854492187	984.5413208007814	697.4984130859377	1283.72998046875	975.1022949218751	698.0027465820315	1214.479614257812	993.8965454101564	452.2364501953127	1214.885131835938	966.9179687500001	280.1451416015627	1236.535400390625	955.8138427734376	242.022659301758	1187.328002929688	951.3162231445314	234.398864746094	1222.574340820312	924.4537963867189	185.609802246094	1221.732177734375	879.0712280273439	132.1269531250002	1235.395629882812	873.9633789062501	90.12751770019554	1185.115112304688	869.3222656250001	90.05117797851584	1214.554443359375	832.9771118164064	42.27784729003928	1241.842163085938	732.7482910156251	-50.07721328735329	1190.639770507812	730.2395629882814	-46.04950714111306	1216.4013671875	676.1076049804689	-74.20774841308571	1426.130737304688	481.1755371093751	185.0295562744143	1401.421264648438	409.7798767089845	205.868591308594	1418.167846679688	447.6760559082032	235.2748565673831	1426.618286132812	278.8463745117189	289.2259521484378	1413.483154296875	242.7992401123048	219.0872192382815	1414.353393554688	222.9745025634766	265.5791931152347	1306.597290039062	71.74687194824227	110.4966659545901	1307.999877929688	45.2860527038575	324.8264770507815	1412.04296875	29.92186355590829	279.2999267578128	1013.337707519531	479.0271911621094	176.2117767333986	994.9119262695312	499.3232421875001	251.6830444335939	1015.870483398438	456.9763793945313	234.5137329101564	1004.965881347656	302.8919982910157	287.7727050781252	1011.963012695312	224.7215423583985	289.034393310547	1017.477355957031	254.5799102783204	250.1089630126955	1126.69189453125	64.92076110839851	115.1285171508791	1107.002563476562	45.56427001953132	325.5049743652346	1007.532775878906	40.08182525634772	270.204803466797	1215.42578125	795.4501342773439	474.2607727050784	1220.9443359375	707.7241210937501	350.8966979980471	1375.652099609375	869.7073364257814	500.1686096191409	1470.263061523438	724.8499755859376	472.172790527344	1496.652099609375	668.4939575195314	449.4180297851565	1451.794189453125	662.3729248046876	471.5901184082034	1512.113647460938	467.8138122558595	415.0340270996097	1539.524047851562	424.0672607421876	354.9751281738284	1515.254638671875	409.0375061035157	396.3769226074222	1515.41650390625	306.6451416015626	380.8890686035159	1446.719970703125	306.0175170898439	341.2445373535159	1061.79296875	865.1521606445314	499.5792541503908	968.3253173828124	730.5206298828126	464.1965332031252	971.9555053710936	666.5186157226564	461.632537841797	931.9125366210936	681.8247070312501	437.8073730468752	914.5357055664061	463.9277648925782	399.0990295410158	931.0864868164061	393.0450439453126	432.085662841797	912.1408081054686	402.2509155273438	386.9837341308595	921.8123168945311	312.7068481445313	397.9851684570314	987.1722412109374	298.0385131835938	347.6430053710939	
499	2.49	2232.881103515625	220.9981384277345	342.8923339843754	212.140396118164	222.7530822753906	371.6525573730469	1209.959228515625	934.2860717773439	718.720886230469	1147.320556640625	986.1511230468751	697.1142578125002	1283.63134765625	976.7139892578126	697.6318969726565	1214.382202148438	994.2571411132814	451.8238220214846	1214.768432617188	966.8312377929689	279.9164123535159	1236.463623046875	955.6494750976564	241.8657073974612	1187.287109375	951.1325073242189	234.205749511719	1222.494384765625	924.1921997070314	185.5074462890627	1221.656372070312	878.8301391601564	132.1750488281252	1235.347045898438	873.7840576171876	90.26176452636741	1185.064819335938	869.1301269531251	90.18218994140646	1214.489135742188	832.7822265625001	42.444160461426	1241.820678710938	732.5929565429689	-49.92239761352516	1190.62109375	730.0773925781251	-45.90438842773415	1216.391967773438	675.9592895507814	-74.07457733154274	1426.139282226562	481.0807189941407	185.1899261474612	1401.455444335938	409.6813354492189	206.0286407470706	1418.1787109375	447.5783081054689	235.4404907226565	1426.608032226562	278.8005981445314	289.3298339843753	1413.470825195312	242.7903289794923	219.1748046875003	1414.351196289062	222.9447479248048	265.6545104980472	1306.58544921875	71.75858306884774	110.5057220458987	1307.9990234375	45.28569030761727	324.8283691406252	1412.0234375	29.87332344055184	279.3645019531253	1013.318786621094	478.8656616210938	176.3358154296877	994.888671875	499.1863403320313	251.798538208008	1015.85009765625	456.8401184082032	234.6473846435549	1004.954772949219	302.8450927734376	287.8692932128908	1011.930969238281	224.6707000732422	289.0867309570314	1017.470458984375	254.5507812500001	250.1839447021486	1126.706298828125	64.9318923950196	115.1398849487307	1106.975830078125	45.55495834350593	325.5294494628909	1007.533752441406	40.07743835449225	270.2080993652345	1215.35400390625	795.9309692382814	474.4233093261721	1220.838500976562	707.8732910156251	351.3050842285159	1375.631469726562	870.1831665039064	499.8743591308596	1470.3193359375	725.2517700195314	471.7192382812503	1496.6611328125	668.9009399414064	448.8748779296878	1451.898803710938	662.7559204101564	471.2434082031253	1512.031127929688	468.1832275390626	414.8193359375003	1539.293579101562	424.3493652343751	354.7557067871097	1515.103149414062	409.3887939453126	396.2333984375003	1515.2158203125	307.0327148437501	380.8685302734378	1446.317993164062	306.2503967285157	341.5110473632815	1061.6552734375	865.6318969726564	499.3370971679689	968.3045043945311	730.7925415039064	463.8782043457033	971.9739990234374	666.8011474609376	461.3891601562502	931.8867797851561	682.0994262695314	437.4560852050783	914.7490234374999	464.1968383789063	398.8933410644533	931.1731567382811	393.3318481445313	431.9545898437502	912.3313598632811	402.5169372558594	386.8064880371095	921.9047241210936	312.9768066406251	397.853729248047	987.3928833007811	298.1681518554688	347.7100219726564	
